# xmcd
#
# Track frame offsets:
#	150
#	16398
#	30184
#	49801
#	74137
#	93969
#	124285
#	144409
#	165286
#
# Disc length: 2650 seconds
# Revision: 0
# Processed by: cddbd v1.5.2PL0 Copyright (c) Steve Scherf et al.
# Submitted via: dBpowerAMP V12.0
#
DISCID=710a5809
DTITLE=Bobby King and Terry Evans - Live and Let Live!
DYEAR=1988
DGENRE=Rhythm and Blues
TTITLE0=(01) Just a little beat
TTITLE1=(02) Bald head
TTITLE2=(03) Seeing is believing
TTITLE3=(04) Let love begin
TTITLE4=(05) Saturday night
TTITLE5=(06) Let me go back to the country
TTITLE6=(07) Got to keep moving
TTITLE7=(09) Live and let live
TTITLE8=(09) At the dark end of the street
EXTD=
EXTT0=
EXTT1=
EXTT2=
EXTT3=
EXTT4=
EXTT5=
EXTT6=
EXTT7=
EXTT8=
PLAYORDER=
